<?xml version="1.0" encoding="utf-8"?>
<!-- Generator: Adobe Illustrator 25.4.1, SVG Export Plug-In . SVG Version: 6.00 Build 0)  -->
<svg version="1.1" id="Layer_1" xmlns="http://www.w3.org/2000/svg" xmlns:xlink="http://www.w3.org/1999/xlink" x="0px" y="0px"
	 viewBox="0 0 17 18" style="enable-background:new 0 0 17 18;" xml:space="preserve">
<g>
	<path d="M7.2,9.8c0.4,0.4,0.4,0.9,0,1.3c-0.4,0.4-0.9,0.4-1.3,0c-1.8-1.8-1.8-4.7,0-6.5l0,0l3.3-3.3c1.8-1.8,4.7-1.8,6.5,0
		c1.8,1.8,1.8,4.7,0,6.5l-1.4,1.4c0-0.8-0.1-1.5-0.4-2.2l0.4-0.4c1.1-1.1,1.1-2.8,0-3.9c-1.1-1.1-2.8-1.1-3.9,0L7.2,5.9
		C6.1,7,6.1,8.7,7.2,9.8 M9.8,5.9c0.4-0.4,0.9-0.4,1.3,0c1.8,1.8,1.8,4.7,0,6.5l0,0l-3.3,3.3c-1.8,1.8-4.7,1.8-6.5,0
		c-1.8-1.8-1.8-4.7,0-6.5l1.4-1.4c0,0.8,0.1,1.5,0.4,2.2l-0.4,0.4c-1.1,1.1-1.1,2.8,0,3.9c1.1,1.1,2.8,1.1,3.9,0l3.2-3.2
		c1.1-1.1,1.1-2.8,0-3.9C9.4,6.8,9.4,6.3,9.8,5.9z"/>
</g>
</svg>
